<svg width="112" height="103" viewBox="0 0 112 103" fill="none" xmlns="http://www.w3.org/2000/svg">
<path d="M75.0521 4.97161C77.6927 2.96957 81.4563 3.48715 83.4583 6.12768L87.5837 11.5687C88.8419 13.2281 89.1001 15.3334 88.5399 17.1649C88.1053 18.5858 87.5456 20.7704 87.3843 22.9322C87.2133 25.2246 87.5447 26.8128 88.1726 27.641C88.8005 28.4692 90.2403 29.217 92.4938 29.6712C94.6189 30.0995 96.8734 30.1502 98.3589 30.1153C100.274 30.0703 102.231 30.8873 103.489 32.5467L107.615 37.9878C109.617 40.6283 109.099 44.3918 106.459 46.3939L37.6009 98.6019C34.9604 100.604 31.1968 100.086 29.1948 97.4458L25.0694 92.0048C23.8113 90.3455 23.5523 88.2406 24.1124 86.4092C24.547 84.9882 25.1075 82.8033 25.2688 80.6413C25.4397 78.3489 25.1084 76.7607 24.4805 75.9325C23.8525 75.1044 22.4127 74.3565 20.1593 73.9023C18.0341 73.474 15.7789 73.4239 14.2934 73.4588C12.3789 73.5036 10.4218 72.686 9.1638 71.0268L5.03842 65.5858C3.03637 62.9452 3.55395 59.1817 6.19449 57.1796L75.0521 4.97161Z" stroke="#DEB456" stroke-width="6"/>
<path d="M19.0071 50.3643L47.7611 88.2882" stroke="#DEB456" stroke-width="5" stroke-linecap="round" stroke-dasharray="10 10"/>
</svg>
