<svg width="64" height="64" viewBox="0 0 64 64" fill="none" xmlns="http://www.w3.org/2000/svg">
<path d="M20 36.0801L20 34.5801H20V36.0801ZM11.5996 44.4805L10.0996 44.4805L10.0996 44.4806L11.5996 44.4805ZM20 52.8799L20 54.3799L20 54.3799L20 52.8799ZM28.3994 44.4805L29.8994 44.4806V44.4805H28.3994ZM44.4795 36.0801L44.4795 34.5801L44.4794 34.5801L44.4795 36.0801ZM36.0801 44.4805L34.5801 44.4805L34.5801 44.4806L36.0801 44.4805ZM44.4795 52.8799L44.4794 54.3799H44.4795V52.8799ZM52.8799 44.4805L54.3799 44.4806V44.4805H52.8799ZM32 33.2002L32 31.7002L31.9999 31.7002L32 33.2002ZM29.1201 36.0801L27.6201 36.0801L27.6201 36.0801L29.1201 36.0801ZM32 38.96L31.9999 40.46H32V38.96ZM34.8799 36.0801L36.3799 36.0801V36.0801H34.8799ZM27.9199 29.1201L27.92 27.6201H27.9199V29.1201ZM25.04 32L23.54 32V32H25.04ZM27.9199 34.8799L27.9199 36.3799L27.92 36.3799L27.9199 34.8799ZM30.7998 32L32.2998 32L32.2998 32L30.7998 32ZM36.0801 29.1201L36.0801 27.6201H36.0801V29.1201ZM33.2002 32L31.7002 32V32H33.2002ZM36.0801 34.8799L36.0801 36.3799L36.0801 36.3799L36.0801 34.8799ZM38.96 32L40.46 32L40.46 32L38.96 32ZM32 25.04L32 23.54L31.9999 23.54L32 25.04ZM29.1201 27.9199L27.6201 27.9199V27.9199H29.1201ZM32 30.7998L31.9999 32.2998H32V30.7998ZM34.8799 27.9199L36.3799 27.9199L36.3799 27.9199L34.8799 27.9199ZM19.5205 11.1201L19.5206 9.62012H19.5205V11.1201ZM11.1201 19.5195L9.62012 19.5194V19.5195H11.1201ZM19.5205 27.9199L19.5205 29.4199L19.5206 29.4199L19.5205 27.9199ZM27.9199 19.5195L29.4199 19.5195L29.4199 19.5194L27.9199 19.5195ZM44.4795 11.1201L44.4795 9.62012L44.4794 9.62012L44.4795 11.1201ZM36.0801 19.5195L34.5801 19.5194V19.5195H36.0801ZM44.4795 27.9199L44.4794 29.4199H44.4795V27.9199ZM52.8799 19.5195L54.3799 19.5195L54.3799 19.5194L52.8799 19.5195ZM32 2V3.5C47.7401 3.5 60.5 16.2599 60.5 32H62H63.5C63.5 14.603 49.397 0.5 32 0.5V2ZM62 32H60.5C60.5 47.7401 47.7401 60.5 32 60.5V62V63.5C49.397 63.5 63.5 49.397 63.5 32H62ZM32 62V60.5C16.2599 60.5 3.5 47.7401 3.5 32H2H0.5C0.5 49.397 14.603 63.5 32 63.5V62ZM2 32H3.5C3.5 16.2599 16.2599 3.5 32 3.5V2V0.5C14.603 0.5 0.5 14.603 0.5 32H2ZM20 36.0801V34.5801C14.5324 34.5801 10.0996 39.0128 10.0996 44.4805H11.5996H13.0996C13.0996 40.6697 16.1892 37.5801 20 37.5801V36.0801ZM11.5996 44.4805L10.0996 44.4806C10.0999 49.948 14.5327 54.3799 20 54.3799V52.8799V51.3799C16.1893 51.3799 13.0998 48.2908 13.0996 44.4804L11.5996 44.4805ZM20 52.8799L20 54.3799C25.4675 54.3798 29.8991 49.9478 29.8994 44.4806L28.3994 44.4805L26.8994 44.4804C26.8992 48.291 23.8105 51.3798 20 51.3799L20 52.8799ZM28.3994 44.4805H29.8994C29.8994 39.0131 25.4678 34.5802 20 34.5801L20 36.0801L20 37.5801C23.8105 37.5801 26.8994 40.6696 26.8994 44.4805H28.3994ZM44.4795 36.0801L44.4794 34.5801C39.0118 34.5803 34.5801 39.0131 34.5801 44.4805H36.0801H37.5801C37.5801 40.6697 40.6691 37.5802 44.4796 37.5801L44.4795 36.0801ZM36.0801 44.4805L34.5801 44.4806C34.5804 49.9477 39.0122 54.3797 44.4794 54.3799L44.4795 52.8799L44.4796 51.3799C40.6691 51.3797 37.5803 48.2909 37.5801 44.4804L36.0801 44.4805ZM44.4795 52.8799V54.3799C49.9468 54.3799 54.3796 49.948 54.3799 44.4806L52.8799 44.4805L51.3799 44.4804C51.3797 48.2908 48.2902 51.3799 44.4795 51.3799V52.8799ZM52.8799 44.4805H54.3799C54.3799 39.0128 49.9471 34.5801 44.4795 34.5801V36.0801V37.5801C48.2903 37.5801 51.3799 40.6697 51.3799 44.4805H52.8799ZM32 33.2002L31.9999 31.7002C29.5811 31.7003 27.6201 33.6611 27.6201 36.0801H29.1201H30.6201C30.6201 35.318 31.2379 34.7002 32.0001 34.7002L32 33.2002ZM29.1201 36.0801L27.6201 36.0801C27.6202 38.499 29.5811 40.4599 31.9999 40.46L32 38.96L32.0001 37.46C31.2379 37.4599 30.6201 36.8421 30.6201 36.08L29.1201 36.0801ZM32 38.96V40.46C34.419 40.46 36.3798 38.499 36.3799 36.0801L34.8799 36.0801L33.3799 36.08C33.3799 36.8422 32.7621 37.46 32 37.46V38.96ZM34.8799 36.0801H36.3799C36.3799 33.6611 34.419 31.7002 32 31.7002V33.2002V34.7002C32.7622 34.7002 33.3799 35.3179 33.3799 36.0801H34.8799ZM27.9199 29.1201V27.6201C25.5009 27.6201 23.54 29.581 23.54 32L25.04 32L26.54 32C26.54 31.2378 27.1578 30.6201 27.9199 30.6201V29.1201ZM25.04 32H23.54C23.54 34.419 25.5009 36.3799 27.9199 36.3799V34.8799V33.3799C27.1578 33.3799 26.54 32.7622 26.54 32H25.04ZM27.9199 34.8799L27.92 36.3799C30.3388 36.3798 32.2998 34.419 32.2998 32H30.7998H29.2998C29.2998 32.762 28.6821 33.3798 27.9199 33.3799L27.9199 34.8799ZM30.7998 32L32.2998 32C32.2998 29.581 30.3388 27.6202 27.92 27.6201L27.9199 29.1201L27.9199 30.6201C28.6821 30.6202 29.2998 31.238 29.2998 32L30.7998 32ZM36.0801 29.1201V27.6201C33.6611 27.6201 31.7002 29.581 31.7002 32L33.2002 32L34.7002 32C34.7002 31.2378 35.3179 30.6201 36.0801 30.6201V29.1201ZM33.2002 32H31.7002C31.7002 34.419 33.6611 36.3799 36.0801 36.3799V34.8799V33.3799C35.3179 33.3799 34.7002 32.7622 34.7002 32H33.2002ZM36.0801 34.8799L36.0801 36.3799C38.499 36.3798 40.46 34.419 40.46 32H38.96H37.46C37.46 32.762 36.8422 33.3798 36.08 33.3799L36.0801 34.8799ZM38.96 32L40.46 32C40.46 29.581 38.499 27.6202 36.0801 27.6201L36.0801 29.1201L36.08 30.6201C36.8422 30.6202 37.46 31.238 37.46 32L38.96 32ZM32 25.04L31.9999 23.54C29.5811 23.5401 27.6202 25.501 27.6201 27.9199L29.1201 27.9199L30.6201 27.92C30.6201 27.1579 31.2379 26.5401 32.0001 26.54L32 25.04ZM29.1201 27.9199H27.6201C27.6201 30.3389 29.5811 32.2997 31.9999 32.2998L32 30.7998L32.0001 29.2998C31.2379 29.2998 30.6201 28.682 30.6201 27.9199H29.1201ZM32 30.7998V32.2998C34.419 32.2998 36.3799 30.3389 36.3799 27.9199H34.8799H33.3799C33.3799 28.6821 32.7622 29.2998 32 29.2998V30.7998ZM34.8799 27.9199L36.3799 27.9199C36.3798 25.501 34.419 23.54 32 23.54V25.04V26.54C32.7621 26.54 33.3799 27.1578 33.3799 27.92L34.8799 27.9199ZM19.5205 11.1201V9.62012C14.0532 9.62012 9.62042 14.052 9.62012 19.5194L11.1201 19.5195L12.6201 19.5196C12.6203 15.7091 15.7098 12.6201 19.5205 12.6201V11.1201ZM11.1201 19.5195H9.62012C9.62012 24.9872 14.0529 29.4199 19.5205 29.4199V27.9199V26.4199C15.7097 26.4199 12.6201 23.3303 12.6201 19.5195H11.1201ZM19.5205 27.9199L19.5206 29.4199C24.9881 29.4197 29.4199 24.9869 29.4199 19.5195H27.9199H26.4199C26.4199 23.3303 23.3309 26.4197 19.5204 26.4199L19.5205 27.9199ZM27.9199 19.5195L29.4199 19.5194C29.4196 14.0523 24.9878 9.62037 19.5206 9.62012L19.5205 11.1201L19.5204 12.6201C23.3309 12.6203 26.4197 15.7091 26.4199 19.5196L27.9199 19.5195ZM44.4795 11.1201L44.4794 9.62012C39.0122 9.62034 34.5804 14.0523 34.5801 19.5194L36.0801 19.5195L37.5801 19.5196C37.5803 15.7091 40.6691 12.6203 44.4796 12.6201L44.4795 11.1201ZM36.0801 19.5195H34.5801C34.5801 24.9869 39.0118 29.4197 44.4794 29.4199L44.4795 27.9199L44.4796 26.4199C40.6691 26.4198 37.5801 23.3303 37.5801 19.5195H36.0801ZM44.4795 27.9199V29.4199C49.9471 29.4199 54.3799 24.9872 54.3799 19.5195H52.8799H51.3799C51.3799 23.3303 48.2903 26.4199 44.4795 26.4199V27.9199ZM52.8799 19.5195L54.3799 19.5194C54.3796 14.052 49.9468 9.62012 44.4795 9.62012V11.1201V12.6201C48.2902 12.6201 51.3797 15.7091 51.3799 19.5196L52.8799 19.5195Z" fill="#DEB456"/>
</svg>
