<svg width="46" height="45" viewBox="0 0 46 45" fill="none" xmlns="http://www.w3.org/2000/svg">
<path d="M19.6709 4.39062C20.7186 1.16603 25.2814 1.16604 26.3291 4.39062L29.5908 14.4287C29.6578 14.6347 29.8498 14.7744 30.0664 14.7744H40.6211C44.0115 14.7745 45.4215 19.1135 42.6787 21.1064L34.1387 27.3105C33.9638 27.4379 33.8903 27.6633 33.957 27.8691L37.2188 37.9082C38.2662 41.1327 34.5759 43.814 31.833 41.8213L23.2939 35.6172C23.1187 35.4899 22.8813 35.4899 22.7061 35.6172L14.167 41.8213C11.4241 43.814 7.73382 41.1326 8.78125 37.9082L12.043 27.8691C12.1097 27.6633 12.0362 27.4379 11.8613 27.3105L3.32129 21.1064C0.578462 19.1135 1.98847 14.7745 5.37891 14.7744H15.9336C16.1502 14.7744 16.3422 14.6347 16.4092 14.4287L19.6709 4.39062Z" stroke="#DEB456" stroke-width="3"/>
</svg>
